<?xml version="1.0" standalone="no"?>
<!DOCTYPE svg PUBLIC "-//W3C//DTD SVG 20010904//EN"
 "http://www.w3.org/TR/2001/REC-SVG-20010904/DTD/svg10.dtd">
<svg version="1.0" xmlns="http://www.w3.org/2000/svg"
 width="106.000000pt" height="115.000000pt" viewBox="0 0 106.000000 115.000000"
 preserveAspectRatio="xMidYMid meet">
<metadata>
Created by potrace 1.10, written by Peter Selinger 2001-2011
</metadata>
<g transform="translate(0.000000,115.000000) scale(0.100000,-0.100000)"
fill="#8e857c" stroke="none">
<path d="M475 1075 c-174 -34 -355 -124 -407 -203 -26 -40 -24 -116 4 -141 31
-29 55 -35 90 -20 35 15 40 9 63 -65 23 -75 21 -87 -14 -80 -44 9 -71 -26 -71
-92 0 -42 5 -56 26 -77 16 -16 24 -33 20 -42 -3 -9 -10 -14 -15 -11 -4 3 -15
-2 -23 -12 -54 -61 -8 -154 69 -139 23 4 35 -1 63 -29 l34 -34 -40 0 c-22 0
-49 7 -61 15 -46 32 -31 -28 19 -78 45 -45 169 -61 247 -33 28 10 42 10 70 0
20 -7 50 -13 67 -14 43 0 126 26 157 50 14 11 34 20 46 20 32 0 123 38 151 63
49 43 70 83 76 146 8 69 1 77 -20 26 -8 -19 -30 -44 -48 -55 -35 -21 -76 -35
-83 -28 -9 9 19 78 32 78 21 0 53 61 53 101 0 41 -27 73 -54 63 -19 -7 -21 7
-5 51 7 18 9 47 5 69 -8 43 -58 104 -92 112 -20 5 -24 12 -24 44 0 54 7 68 46
86 42 20 67 58 67 104 0 50 -26 85 -81 112 -41 20 -64 23 -172 25 -73 1 -154
-4 -195 -12z m68 -27 c19 -23 19 -23 13 -1 -6 20 -3 21 45 21 44 1 50 -2 46
-17 -3 -14 1 -17 19 -13 14 2 21 9 17 18 -3 9 2 14 17 14 19 0 21 -4 16 -27
-5 -20 -4 -24 3 -14 8 12 12 12 25 2 18 -15 22 -1 4 17 -16 16 -4 25 22 17 13
-4 19 -12 16 -21 -7 -17 -1 -18 23 -3 14 10 24 7 49 -11 32 -24 43 -44 19 -34
-8 3 -14 -2 -14 -11 0 -8 8 -15 18 -15 34 0 30 -45 -8 -87 -13 -14 -75 -43
-93 -43 -5 0 -10 5 -10 11 0 6 7 9 14 6 10 -4 13 -1 9 9 -6 15 -23 19 -23 5 0
-17 -34 -22 -46 -6 -6 8 -18 13 -26 10 -15 -6 -108 51 -108 66 0 5 -7 9 -15 9
-32 0 -4 -35 58 -74 35 -22 25 -38 -36 -55 -32 -9 -50 -9 -72 -1 -36 14 -75
48 -75 67 0 7 -7 13 -15 13 -18 0 -19 -12 -4 -27 8 -8 8 -17 0 -31 -19 -36
-42 -52 -74 -52 -36 1 -56 13 -81 53 -10 15 -22 27 -27 27 -14 0 -10 -26 5
-39 12 -10 9 -18 -22 -45 -57 -51 -97 -69 -125 -55 -30 16 -37 28 -37 69 0 33
16 66 48 99 28 29 167 101 184 95 10 -3 18 -1 18 4 0 16 33 24 42 10 6 -10 12
-8 26 10 l17 22 13 -21 c7 -11 16 -18 19 -15 3 3 0 12 -6 20 -9 11 -9 16 0 21
6 4 15 1 20 -6 8 -12 11 -11 22 2 10 13 29 25 46 28 2 1 13 -9 24 -21z m201
-230 c-3 -4 -3 -8 0 -8 2 0 12 -3 20 -6 12 -5 15 -2 10 10 -4 11 -1 16 10 16
9 0 16 -6 16 -14 0 -20 -25 -37 -43 -30 -10 3 -18 -2 -22 -15 -3 -12 -13 -21
-22 -21 -14 0 -14 -3 2 -20 10 -11 27 -22 38 -26 11 -4 32 -18 46 -31 l26 -25
-25 7 c-14 4 -26 10 -27 14 -5 11 -206 -6 -265 -22 -32 -9 -98 -32 -149 -52
-50 -20 -92 -35 -93 -33 -1 1 -11 40 -22 86 -10 45 -22 82 -26 82 -16 0 -7 19
12 25 23 7 43 -2 34 -16 -4 -6 -11 -6 -20 2 -8 7 -14 7 -14 1 0 -5 7 -16 17
-23 13 -11 17 -11 20 -1 3 6 9 10 14 6 5 -3 9 2 9 11 0 11 5 15 14 12 10 -4
13 -1 9 9 -6 17 -20 18 -26 2 -3 -10 -7 -10 -20 1 -13 10 -15 17 -6 27 17 21
26 18 63 -21 31 -31 34 -33 39 -15 3 11 10 20 17 20 6 0 9 -4 6 -9 -3 -5 1
-11 9 -15 18 -6 30 10 14 20 -9 5 -8 10 2 18 8 6 19 20 25 31 6 10 17 21 25
24 12 4 12 2 1 -12 -12 -14 -12 -19 1 -32 9 -8 18 -11 21 -6 4 5 0 11 -6 14
-7 2 -9 8 -5 13 4 4 19 -4 33 -19 27 -30 47 -36 38 -12 -4 8 -1 15 5 15 6 0
11 -4 11 -10 0 -5 7 -10 15 -10 8 0 15 5 15 10 0 6 5 10 12 10 9 0 9 -3 0 -12
-16 -16 -15 -25 2 -31 10 -4 13 -1 10 7 -3 8 -1 17 5 21 6 3 11 0 11 -8 0 -7
7 -14 15 -14 8 0 15 6 15 13 0 6 -7 14 -15 18 -22 8 -18 19 11 37 21 13 34 14
60 6 18 -6 31 -14 28 -19z m46 -64 c0 -7 -8 -10 -20 -7 -11 3 -20 9 -20 14 0
4 9 7 20 6 11 -1 20 -7 20 -13z m-40 -15 c0 -5 4 -8 9 -5 17 11 41 -6 41 -28
-1 -20 -1 -21 -15 -2 -8 11 -18 17 -21 13 -4 -3 -13 0 -20 8 -16 16 -18 25 -4
25 6 0 10 -5 10 -11z m138 -99 c26 -39 30 -98 6 -107 -21 -8 -49 10 -48 31 1
9 -2 14 -6 11 -4 -3 -20 11 -34 29 l-26 35 35 -6 c21 -3 35 -2 35 5 0 6 -4 12
-9 14 -4 2 -12 14 -16 28 -7 24 -7 24 16 9 13 -9 34 -31 47 -49z m-123 -10
c10 -11 32 -41 49 -68 18 -27 40 -48 52 -50 16 -2 23 -12 28 -40 14 -86 -2
-208 -29 -219 -16 -5 -66 19 -84 41 -8 9 -22 16 -32 16 -37 0 -89 42 -112 89
-16 33 -29 47 -46 49 -31 5 -41 -13 -39 -71 1 -54 -23 -89 -80 -113 -19 -7
-46 -26 -61 -41 -15 -16 -39 -39 -54 -52 l-27 -25 -31 30 c-54 51 -81 103 -83
158 -1 44 2 50 21 55 26 7 93 67 93 84 0 6 7 19 17 29 15 17 15 18 0 18 -26 0
-20 15 11 27 l27 11 -25 1 c-20 1 -22 3 -10 11 8 5 23 7 33 4 9 -3 17 -1 17 4
0 5 16 13 35 16 19 4 35 12 35 19 0 8 3 8 9 -1 7 -11 11 -11 22 1 8 7 20 12
27 9 6 -2 12 1 12 7 0 6 5 11 11 11 5 0 8 -4 5 -9 -3 -4 6 -6 19 -3 14 2 28 8
31 13 3 5 36 9 73 9 55 0 71 -4 86 -20z m-467 -146 c-27 -58 -85 -97 -115 -78
-28 17 -30 105 -4 128 18 16 25 17 50 7 24 -10 34 -10 58 2 38 21 41 4 11 -59z
m650 -26 c21 -21 12 -98 -12 -98 -7 0 -11 21 -12 55 -1 57 3 64 24 43z m-323
-78 c14 -28 37 -56 50 -62 31 -14 31 -19 -2 -53 -25 -24 -33 -27 -77 -21 -64
7 -76 19 -48 49 17 18 22 36 22 73 0 82 19 86 55 14z m-435 -75 c7 -9 10 -18
6 -22 -3 -3 -6 -1 -6 6 0 7 -4 9 -10 6 -6 -4 -5 -11 3 -19 6 -8 15 -12 19 -10
3 2 11 -10 17 -26 5 -17 6 -28 1 -25 -4 3 -10 0 -12 -5 -2 -6 -13 -2 -25 9
-11 11 -23 18 -26 15 -9 -9 -14 43 -6 64 10 26 22 28 39 7z m593 -39 c74 -55
153 -56 213 -4 37 32 44 24 17 -20 -68 -110 -189 -159 -284 -113 -24 11 -51
26 -60 32 -13 10 -21 8 -40 -10 -79 -75 -203 -127 -275 -116 -42 6 -134 57
-134 74 0 5 17 7 38 4 49 -7 89 14 144 72 58 61 84 71 142 51 75 -26 110 -21
148 18 40 42 50 43 91 12z m-101 -148 c14 3 17 0 12 -12 -3 -9 -1 -16 5 -16 6
0 11 5 11 10 0 6 5 10 11 10 6 0 8 -7 5 -16 -5 -14 -4 -15 9 -4 21 17 30 6 11
-13 -23 -22 -110 -40 -162 -32 -24 3 -42 11 -39 16 4 5 11 7 16 4 10 -7 39 18
39 34 0 6 5 11 10 11 6 0 10 -4 10 -10 0 -5 7 -10 15 -10 13 0 14 4 4 21 -9
18 -9 20 7 11 9 -5 25 -7 36 -4z"/>
<path d="M592 1048 c-18 -18 -15 -33 4 -17 13 10 17 10 25 -2 10 -16 12 -8 3
15 -7 19 -16 20 -32 4z"/>
<path d="M510 1039 c0 -6 -7 -9 -15 -5 -17 6 -21 -9 -5 -19 6 -3 17 0 25 9 17
17 19 26 5 26 -5 0 -10 -5 -10 -11z"/>
<path d="M810 1031 c0 -6 5 -11 11 -11 6 0 8 -7 5 -16 -5 -14 -4 -15 9 -4 9 7
14 13 13 14 -2 1 -11 8 -20 15 -12 9 -18 10 -18 2z"/>
<path d="M870 936 c0 -14 -5 -16 -29 -11 -33 7 -45 -5 -36 -35 7 -23 35 -27
35 -5 0 8 5 15 11 15 6 0 17 7 26 16 12 11 13 18 4 27 -8 8 -11 6 -11 -7z
m-30 -26 c0 -5 -7 -10 -15 -10 -8 0 -15 5 -15 10 0 6 7 10 15 10 8 0 15 -4 15
-10z"/>
<path d="M687 819 c3 -11 0 -19 -6 -19 -6 0 -11 5 -11 10 0 6 -5 10 -12 10 -6
0 -3 -9 8 -21 10 -11 20 -16 22 -10 7 22 23 10 17 -11 -7 -23 -7 -23 8 -3 10
12 12 24 6 31 -5 6 -6 13 -4 16 3 3 -3 8 -13 10 -15 4 -18 1 -15 -13z"/>
<path d="M430 775 c0 -8 5 -15 10 -15 6 0 10 7 10 15 0 8 -4 15 -10 15 -5 0
-10 -7 -10 -15z"/>
<path d="M666 488 c-3 -13 -1 -27 5 -33 6 -6 12 -2 15 13 7 26 30 28 56 5 25
-22 36 -8 13 17 -26 29 -81 27 -89 -2z"/>
<path d="M424 430 c-24 -9 -49 -66 -33 -76 5 -3 14 8 20 25 11 32 44 42 66 20
7 -7 13 -7 17 -1 4 6 -4 18 -16 26 -25 18 -25 18 -54 6z"/>
<path d="M237 483 c-3 -5 -1 -17 4 -28 7 -17 8 -17 8 8 1 27 -4 34 -12 20z"/>
<path d="M735 230 c-3 -5 12 -18 34 -30 43 -22 126 -27 151 -9 11 7 4 8 -26 4
-43 -7 -124 9 -124 24 0 13 -28 22 -35 11z"/>
<path d="M455 159 c-16 -16 -43 -35 -60 -42 -16 -8 -41 -19 -55 -25 -24 -10
-25 -11 -2 -11 29 -1 115 45 149 81 37 38 7 36 -32 -3z"/>
<path d="M785 150 c19 -8 83 -14 74 -6 -2 2 -24 6 -49 9 -30 4 -38 3 -25 -3z"/>
<path d="M496 124 c-15 -14 -26 -28 -23 -31 7 -7 67 35 67 48 0 15 -13 10 -44
-17z"/>
</g>
</svg>
