<svg width="150" height="150" viewBox="0 0 449 465" fill="none" xmlns="http://www.w3.org/2000/svg">
<path d="M236.773 77.7422C236.533 77.8003 234.318 77.9747 231.834 78.1781C225.727 78.6141 220.519 79.3697 214.023 80.6775C209.593 81.5784 204.864 82.77 203.607 83.2931C203.068 83.5256 202.349 83.7 202.02 83.7C201.691 83.7 201.122 83.8453 200.763 84.0487C200.404 84.2231 199.715 84.4847 199.206 84.6009C197.919 84.8916 194.806 85.9959 192.92 86.7806C192.441 86.9841 191.663 87.2456 191.184 87.3328C190.735 87.4491 190.286 87.6525 190.196 87.7978C190.107 87.9431 189.837 88.0594 189.598 88.0594C189.239 88.0594 188.341 88.4372 183.94 90.3844C178.762 92.6803 174.451 94.9181 174.122 95.4703C174.002 95.7028 173.583 95.9062 173.224 95.9062C172.386 95.9062 171.817 96.4294 171.817 97.1269C171.817 97.7081 172.266 97.8244 172.566 97.3303C172.685 97.185 173.075 96.8944 173.404 96.749C173.763 96.6037 174.871 96.0515 175.858 95.5284C176.846 95.0053 178.193 94.2787 178.852 93.93C180.169 93.2615 185.856 90.675 186.066 90.675C186.125 90.675 187.023 90.2972 188.041 89.8612C190.376 88.815 192.112 88.1466 196.003 86.7806C198.248 85.9959 199.236 85.6762 200.104 85.4437C200.613 85.2984 201.421 85.0659 201.9 84.9206C213.006 81.2878 230.157 78.7303 242.759 78.7594C246.262 78.7884 256.499 79.4859 259.522 79.9219C270.148 81.4331 280.835 84.0778 289.156 87.1875C290.054 87.5362 291.132 87.9141 291.551 88.0594C292.748 88.4372 296.19 89.8903 299.932 91.605C302.087 92.564 303.045 93.0581 305.919 94.5403C306.996 95.0925 308.463 95.8481 309.211 96.2259C309.96 96.5747 310.618 96.9525 310.708 97.0397C310.798 97.1559 312.145 97.9697 313.701 98.8997C317.503 101.137 317.653 101.254 318.012 101.515C318.191 101.632 319.299 102.387 320.436 103.172C321.604 103.957 322.771 104.799 323.071 105.032C323.34 105.293 323.729 105.497 323.879 105.497C324.058 105.497 324.178 105.584 324.178 105.7C324.178 105.846 324.807 106.311 325.525 106.805C326.273 107.27 326.872 107.764 326.872 107.88C326.872 108.025 327.082 108.112 327.321 108.112C327.561 108.112 327.77 108.2 327.77 108.316C327.77 108.461 328.788 109.333 330.015 110.292C331.242 111.251 332.26 112.123 332.26 112.239C332.26 112.385 332.38 112.472 332.53 112.472C332.679 112.472 333.457 113.082 334.236 113.809C335.044 114.535 336.6 115.93 337.678 116.86C339.384 118.313 339.714 118.488 339.893 118.081C340.043 117.674 339.414 116.947 337.349 115C335.852 113.605 334.565 112.472 334.475 112.472C334.385 112.472 333.966 112.094 333.517 111.658C333.068 111.222 332.051 110.321 331.212 109.711C330.404 109.072 329.656 108.49 329.566 108.403C329.476 108.287 328.489 107.531 327.321 106.688C326.184 105.817 325.196 105.032 325.136 104.887C325.076 104.741 324.837 104.625 324.627 104.625C324.418 104.625 324.178 104.509 324.118 104.392C324.088 104.276 322.891 103.404 321.484 102.445C320.077 101.515 318.88 100.643 318.79 100.556C318.7 100.44 318.431 100.266 318.191 100.178C317.952 100.062 317.383 99.7425 316.964 99.4519C316.515 99.1903 315.168 98.3765 313.971 97.65C312.744 96.9525 311.696 96.284 311.606 96.1969C311.516 96.1097 310.858 95.7319 310.109 95.3831C309.361 95.0053 307.954 94.2497 306.966 93.7265C303.644 91.9247 297.148 88.9603 293.646 87.6525C292.898 87.3619 291.91 86.955 291.401 86.7225C290.204 86.1994 280.625 83.0897 279.278 82.8281C278.709 82.7119 276.943 82.2759 275.387 81.8981C268.023 80.0381 261.438 78.9047 253.685 78.1491C250.452 77.8294 237.641 77.5097 236.773 77.7422Z" fill="#7B8188"/>
<path d="M170.5 97.2723C170.321 97.6791 170.351 97.7082 170.65 97.4466C170.859 97.2432 170.949 97.0107 170.859 96.9235C170.77 96.8363 170.59 96.9816 170.5 97.2723Z" fill="#7B8188"/>
<path d="M167.926 98.6673C167.357 99.0452 166.729 99.3648 166.519 99.3648C166.34 99.3939 166.13 99.4811 166.07 99.5973C165.95 99.888 164.125 101.138 163.855 101.138C163.765 101.138 163.167 101.515 162.538 102.01C161.909 102.475 161.311 102.881 161.191 102.881C161.101 102.881 160.832 103.056 160.592 103.23C160.383 103.434 158.916 104.509 157.33 105.613C155.743 106.718 154.456 107.735 154.456 107.88C154.456 107.996 154.246 108.113 154.007 108.113C153.768 108.113 153.558 108.2 153.558 108.316C153.558 108.461 152.72 109.188 151.702 110.002C150.654 110.786 149.367 111.891 148.829 112.385C148.29 112.908 147.811 113.344 147.751 113.344C147.122 113.344 128.414 131.508 128.414 132.089C128.414 132.176 128.115 132.554 127.726 132.903C125.75 134.763 121.829 140.343 120.362 143.424C119.554 145.051 119.374 145.807 119.374 147.376C119.344 149.352 119.973 150.805 120.871 150.835C121.05 150.835 121.23 150.951 121.23 151.096C121.23 151.241 121.889 151.619 122.697 151.968C124.702 152.811 129.043 152.84 131.407 152.026C134.221 151.038 135.089 150.515 137.244 148.335C139.25 146.33 141.046 145.022 141.794 145.022C141.974 145.022 142.722 145.545 143.411 146.185C144.189 146.882 144.997 147.347 145.446 147.347C145.865 147.347 147.092 146.766 148.23 146.039C150.954 144.237 152.63 143.918 155.803 144.528C159.694 145.284 160.323 145.603 163.167 148.132C166.25 150.864 167.268 151.532 169.123 151.997C172.416 152.782 175.439 150.195 176.277 145.865C176.607 144.266 176.577 143.685 176.218 142.29C175.649 140.227 175.05 139.675 171.638 138.076C170.171 137.408 168.495 136.623 167.926 136.361C165.98 135.431 165.232 134.618 165.232 133.397C165.232 132.118 165.891 131.334 167.627 130.578C170.5 129.328 171.368 128.921 171.518 128.747C171.608 128.66 172.356 128.079 173.164 127.439C174.003 126.829 174.811 126.16 174.96 126.015C176.277 124.678 178.762 124.039 183.491 123.806C186.754 123.632 188.281 123.429 189.628 122.935C193.998 121.423 194.686 121.481 197.111 123.69C199.147 125.55 200.913 126.422 202.649 126.422C203.337 126.422 204.295 126.655 204.774 126.916C205.522 127.352 205.642 127.585 205.642 128.66C205.642 129.445 205.313 130.636 204.774 131.74C203.397 134.705 202.948 135.722 202.948 136.1C202.948 136.303 202.469 136.943 201.9 137.553C199.236 140.372 198.458 142.232 198.458 145.807V147.957L197.021 149.323C196.153 150.137 194.926 150.922 193.998 151.27C193.13 151.59 192.292 152.026 192.112 152.2C191.933 152.404 191.633 152.578 191.454 152.578C190.586 152.607 188.011 155.572 186.784 157.955C186.604 158.275 186.215 158.914 185.886 159.408C185.557 159.873 185.198 160.483 185.078 160.716C184.719 161.53 183.072 163.477 181.875 164.552C180.887 165.453 180.438 165.656 179.45 165.656C177.265 165.627 176.188 164.058 175.918 160.512C175.649 157.141 175.17 155.514 174.032 154.351C173.075 153.363 173.075 153.363 170.381 153.392C165.98 153.421 164.035 154.874 164.035 158.158C164.035 158.652 163.825 159.059 163.466 159.263C162.538 159.728 159.605 159.611 158.407 159.059C155.803 157.868 155.414 156.56 156.821 153.654C157.898 151.416 158.018 150.079 157.18 149.817C156.462 149.614 155.174 149.905 154.127 150.515C152.989 151.183 148.409 155.281 143.979 159.553C140.118 163.302 138.292 165.889 138.292 167.633C138.322 169.87 141.405 173.445 144.817 175.16C146.853 176.206 149.337 176.439 150.325 175.712C151.193 175.073 151.762 173.329 151.762 171.295C151.762 169.696 151.942 168.999 152.84 167.139C154.336 164 155.174 163.041 156.312 163.041C157.3 163.041 158.018 163.68 158.048 164.581C158.048 164.843 158.377 165.598 158.796 166.209C159.545 167.371 160.263 167.72 162.688 168.127C165.112 168.534 166.07 170.365 167.507 177.281C167.836 178.996 168.315 180.188 168.974 181.205C170.62 183.675 170.68 183.82 169.991 184.431C169.542 184.838 169.273 184.896 168.884 184.663C168.405 184.373 167.537 183.123 167.148 182.222C166.04 179.577 165.382 178.735 164.364 178.735C163.316 178.735 162.748 179.723 162.119 182.658C161.101 187.308 160.473 188.906 159.455 189.517C158.916 189.807 158.018 190.069 157.419 190.069C154.396 190.069 151.972 192.278 150.056 196.753C148.499 200.386 148.409 200.793 148.17 206.344C147.871 213.028 147.392 214.627 145.416 215.615C144.728 215.964 144.368 215.964 143.321 215.673C142.602 215.47 141.704 215.034 141.315 214.743C140.926 214.423 140.357 214.249 140.088 214.336C139.759 214.423 139.31 214.191 138.861 213.668C137.963 212.65 137.095 212.273 137.095 212.912C137.095 213.348 138.202 214.452 138.681 214.481C138.801 214.481 139.459 214.83 140.178 215.266C143.141 217.126 144.728 217.475 146.105 216.574C148.469 215.005 148.948 213.61 149.218 207.506C149.487 201.084 149.756 199.805 151.852 195.678C153.468 192.481 154.755 191.522 158.078 191.086C161.131 190.65 161.969 189.168 163.586 181.205C163.646 180.885 163.885 180.391 164.125 180.1C164.484 179.606 164.633 179.81 165.831 182.135C167.327 185.012 167.986 185.68 169.273 185.68C171.488 185.68 172.207 183.588 170.65 181.67C169.602 180.362 168.824 178.909 168.824 178.24C168.824 176.642 167.118 170.8 166.25 169.435C165.262 167.865 163.705 166.819 162.418 166.819C160.652 166.819 158.946 165.308 158.946 163.709C158.946 163.36 158.587 162.808 158.138 162.46C157.449 161.936 157.06 161.849 156.043 161.995C154.845 162.14 153.558 162.983 153.558 163.593C153.558 163.738 153.438 163.913 153.289 163.971C153.139 164 152.57 165.046 152.001 166.238C151.163 167.952 150.894 168.94 150.744 170.917C150.325 175.567 149.128 176.235 145.177 174.055C144.937 173.91 144.428 173.678 144.069 173.532C143.71 173.358 142.692 172.544 141.794 171.672C139.699 169.609 139.19 168.069 139.938 166.121C140.238 165.395 140.597 164.785 140.717 164.785C140.866 164.785 140.986 164.639 140.986 164.494C140.986 163.884 144.817 159.989 148.888 156.502C150.176 155.368 151.642 154.06 152.181 153.595C154.516 151.358 156.551 150.253 156.551 151.183C156.551 151.358 156.222 152.2 155.803 153.043C154.217 156.327 154.516 158.013 156.97 159.553C158.407 160.483 158.647 160.541 161.071 160.541C164.454 160.512 165.202 160.047 165.232 157.955C165.232 156.996 165.442 156.298 165.801 155.862C166.519 155.02 168.794 154.322 170.77 154.322C172.147 154.322 172.506 154.438 173.224 155.165C174.122 156.037 174.182 156.298 175.02 162.46C175.439 165.569 177.984 167.371 180.797 166.557C182.683 166.005 184.359 164.087 187.772 158.536C190.017 154.932 190.885 154.06 194.028 152.52C195.405 151.852 196.572 151.183 196.602 151.067C196.662 150.951 196.842 150.835 196.991 150.835C197.321 150.835 198.278 149.934 198.907 148.975C199.206 148.539 199.506 147.144 199.685 145.313C199.985 142.087 200.374 140.895 201.481 139.733C203.098 138.018 203.547 137.437 204.145 136.187C204.475 135.46 204.744 134.734 204.744 134.56C204.744 134.356 204.954 133.833 205.193 133.368C205.433 132.903 205.852 132.147 206.091 131.711C206.66 130.607 206.959 128.718 206.72 127.526C206.48 126.306 205.462 125.695 203.217 125.434C201.332 125.23 199.865 124.62 198.727 123.545C197.171 122.063 196.333 121.452 195.135 121.016C193.908 120.522 192.471 120.697 190.376 121.54C188.82 122.179 187.413 122.411 182.743 122.76C178.552 123.08 177.744 123.225 176.277 123.923C175.35 124.359 174.272 125.027 173.883 125.376C171.937 127.061 170.261 128.166 168.076 129.154C165.082 130.52 164.394 131.13 164.184 132.641C163.795 135.141 164.603 135.955 169.872 138.483C174.96 140.895 175.2 141.157 175.17 144.063C175.17 146.679 174.481 148.48 172.955 149.934C171.997 150.835 171.368 151.009 169.483 150.864C168.136 150.776 167.148 150.166 164.484 147.696C163.227 146.533 162.089 145.603 161.939 145.603C161.76 145.603 161.64 145.487 161.64 145.371C161.64 144.731 155.504 142.988 153.319 142.988C151.792 142.988 149.487 143.772 148.17 144.702C146.883 145.632 145.895 146.185 145.506 146.185C145.356 146.185 144.578 145.661 143.83 145.022C143.081 144.383 142.183 143.86 141.884 143.86C140.776 143.86 138.891 145.08 137.035 147.027C134.91 149.236 133.054 150.37 130.21 151.154C126.618 152.171 123.355 151.648 121.35 149.701C120.332 148.713 120.272 148.568 120.392 147.202C120.601 144.819 123.385 139.762 126.169 136.739C126.738 136.1 127.306 135.286 127.396 134.908C127.486 134.56 127.755 134.269 127.995 134.269C128.234 134.269 128.414 134.182 128.414 134.036C128.414 133.804 128.564 133.63 133.024 128.892C137.723 123.865 142.692 119.215 151.313 111.745C151.972 111.164 153.139 110.234 153.947 109.653C154.725 109.043 155.354 108.461 155.354 108.345C155.354 108.229 155.564 108.113 155.803 108.113C156.043 108.113 156.252 108.025 156.252 107.88C156.252 107.764 156.851 107.299 157.599 106.863C158.347 106.398 158.946 105.904 158.946 105.759C158.946 105.613 159.096 105.497 159.275 105.497C159.455 105.497 160.353 104.945 161.281 104.247C163.705 102.475 167.208 100.266 167.597 100.266C167.776 100.266 167.926 100.15 167.926 100.033C167.926 99.888 168.405 99.5683 168.974 99.3067C170.111 98.7836 170.291 98.4058 169.542 98.1152C168.974 97.9117 169.183 97.8245 167.926 98.6673Z" fill="#7B8188"/>
<path d="M340.641 118.982C340.641 119.331 344.293 123.457 347.825 127.061C349.172 128.427 350.07 129.444 352.016 131.798C353.094 133.077 354.022 134.182 354.141 134.269C354.231 134.356 354.68 134.937 355.159 135.577C355.668 136.216 356.117 136.797 356.237 136.884C356.327 136.972 357.195 138.076 358.182 139.355C362.463 144.935 363.181 147.143 360.936 147.899C358.033 148.887 347.825 147.202 343.186 144.964C341.3 144.034 340.881 143.801 338.666 142.203C336.211 140.43 333.936 139.5 332.11 139.5C331.392 139.5 329.686 139.878 328.309 140.343C326.932 140.808 324.896 141.244 323.759 141.36C321.185 141.563 320.706 141.941 322.442 142.348C323.879 142.697 325.944 142.377 329.087 141.273C331.093 140.575 332.5 140.517 334.206 141.04C335.403 141.389 337.828 142.755 338.396 143.394C338.576 143.569 338.965 143.888 339.294 144.063C344.862 147.434 351.088 149.091 358.033 149.091C361.475 149.091 361.535 149.091 362.463 148.248C363.091 147.696 363.391 147.143 363.391 146.562C363.391 145.603 362.732 143.685 362.253 143.22C362.044 143.017 361.894 142.755 361.894 142.61C361.894 142.319 354.8 133.106 354.231 132.641C353.992 132.467 353.812 132.176 353.812 132.002C353.812 131.827 353.692 131.653 353.543 131.595C353.393 131.537 352.555 130.665 351.657 129.619C348.304 125.666 346.598 123.922 345.79 123.69C345.461 123.574 345.102 123.196 345.012 122.847C344.832 122.179 341.36 118.575 340.911 118.575C340.761 118.575 340.641 118.749 340.641 118.982Z" fill="#7B8188"/>
<path d="M293.975 128.892C293.077 129.125 292 129.444 291.581 129.648C291.132 129.822 290.324 130.2 289.755 130.461C286.522 131.915 281.074 135.547 278.38 138.047C276.644 139.645 275.656 139.994 272.154 140.197C268.622 140.372 267.784 140.75 265.599 143.22C263.234 145.836 260.211 147.027 254.194 147.666C251.44 147.957 250.033 147.957 246.92 147.666C244.765 147.463 242.61 147.172 242.071 147.027C236.683 145.487 232.582 145.574 229.798 147.26C228.511 148.044 224.5 151.851 224.5 152.287C224.5 152.433 224.38 152.578 224.261 152.578C224.021 152.578 222.375 154.612 221.656 155.833C220.16 158.274 219.411 160.251 219.411 161.82C219.411 162.982 220.28 165.656 220.639 165.656C220.788 165.656 220.908 165.831 220.908 166.063C220.908 166.296 221.028 166.528 221.148 166.586C221.746 166.79 223.602 169.928 223.602 170.684C223.602 172.631 220.968 175.16 217.466 176.555C213.993 177.979 212.676 178.996 212.347 180.594C212.108 181.96 212.347 182.541 213.904 184.314C215.341 185.971 215.43 186.232 214.802 187.424C214.413 188.121 214.023 188.296 211.868 188.761C210.491 189.051 209.114 189.487 208.815 189.749C207.707 190.65 206.54 192.481 206.54 193.324C206.54 195.445 207.857 196.172 211.629 196.172C214.892 196.172 215.311 195.997 218.244 193.207C220.459 191.115 222.195 190.069 223.482 190.069C224.321 190.069 225.308 190.941 227.673 193.731C229.02 195.3 230.337 195.881 232.432 195.881C235.516 195.881 237.521 194.544 238.419 191.9C239.437 188.877 240.275 187.918 242.4 187.308C245.723 186.32 248.447 187.279 248.447 189.4C248.447 189.894 246.172 190.911 245.094 190.941C244.196 190.941 241.562 192.074 241.562 192.452C241.562 192.568 241.383 192.684 241.203 192.684C240.514 192.713 239.736 194.108 239.826 195.067C239.916 195.939 240.125 196.114 242.909 197.451C244.555 198.235 245.932 198.904 245.962 198.933C246.022 198.962 246.142 199.369 246.232 199.892C246.561 201.519 244.825 202.507 239.766 203.554C234.348 204.658 230.696 204.861 229.319 204.193C228.87 203.961 228.092 203.263 227.643 202.653C224.979 199.252 222.704 197.916 219.501 197.916C216.717 197.916 214.682 199.049 211.03 202.566C207.707 205.762 207.348 206.169 205.433 209.017C202.529 213.348 200.853 217.446 200.374 221.543C200.224 222.88 200.314 223.781 201.122 227.559C201.481 229.245 203.247 232.442 204.475 233.575C206.091 235.116 208.276 236.249 209.593 236.278C210.282 236.278 211.539 235.9 212.736 235.348C215.221 234.186 218.035 234.011 219.561 234.97C221.387 236.075 223.602 238.952 223.602 240.201C223.602 241.102 224.919 243.137 226.506 244.648C228.631 246.682 228.96 247.787 228.362 251.274C227.733 255.081 227.853 260.603 228.661 263.306C229.888 267.578 230.158 268.421 230.786 269.991C231.145 270.862 231.534 271.938 231.684 272.345C231.804 272.751 232.043 273.333 232.223 273.652C232.373 273.943 232.852 274.902 233.211 275.716C233.6 276.559 234.019 277.256 234.139 277.256C234.288 277.256 234.378 277.431 234.378 277.605C234.378 277.808 234.887 278.302 235.486 278.709C237.042 279.756 239.078 279.697 241.353 278.593C242.31 278.099 243.448 277.431 243.837 277.053C244.256 276.675 244.645 276.384 244.735 276.384C244.825 276.384 246.142 275.164 247.669 273.652C250.931 270.426 252.009 268.537 252.787 264.614C253.296 262.027 254.044 259.354 254.463 258.801C255.361 257.581 255.99 254.994 256.229 251.391C256.379 249.24 256.619 246.944 256.708 246.305C256.888 245.287 258.474 241.916 258.953 241.509C259.043 241.422 259.552 240.754 260.061 239.998C260.6 239.271 261.198 238.487 261.408 238.254C261.617 238.051 262.186 237.353 262.665 236.714C263.174 236.075 263.623 235.493 263.713 235.406C264.042 235.086 264.85 233.459 265.209 232.413C265.868 230.407 264.521 228.78 261.797 228.344C260.151 228.082 259.821 227.734 260.211 226.658C260.54 225.874 263.114 223.2 263.563 223.2C263.803 223.2 265.629 221.95 265.748 221.66C265.808 221.543 265.988 221.456 266.137 221.456C266.497 221.456 267.604 220.381 267.604 220.003C267.604 219.829 267.724 219.712 267.874 219.712C268.323 219.712 269.31 217.039 269.55 215.266C269.939 212.011 270.837 210.994 273.262 210.994C275.477 210.994 279.218 212.65 280.356 214.191C280.565 214.423 281.074 215.004 281.493 215.498C282.361 216.457 284.696 220.904 285.385 222.909C287.091 227.821 287.929 229.216 289.396 229.477C290.982 229.768 291.94 228.635 294.065 224.014C294.335 223.432 294.544 222.88 294.544 222.793C294.544 222.415 296.729 218.114 296.969 218.027C297.118 217.969 297.238 217.794 297.238 217.649C297.238 217.271 298.166 216.428 299.124 215.963C299.812 215.615 300.052 215.615 300.74 215.963C302.686 216.922 305.081 220.613 306.039 224.072C307.296 228.606 308.733 231.861 310.229 233.517C311.157 234.592 311.367 234.68 312.803 234.68C314.21 234.68 314.45 234.592 315.228 233.662C315.946 232.849 316.096 232.384 316.096 231.192C316.096 229.797 315.288 226.775 314.57 225.496C314.33 225.031 314.36 224.74 314.749 224.159C315.168 223.549 315.408 223.461 316.186 223.636C318.431 224.101 320.047 224.13 320.317 223.752C320.975 222.735 320.586 221.224 319.239 219.48C318.491 218.521 317.892 217.504 317.892 217.213C317.922 216.341 318.79 215.556 321.035 214.481C323.939 213.086 325.346 211.517 326.363 208.552C326.962 206.896 327.052 203.031 326.543 201.781C326.094 200.706 325.645 196.811 325.854 195.968C326.154 194.864 327.052 195.184 328.518 196.956C330.105 198.875 331.153 199.456 332.17 198.991C333.008 198.613 333.068 198.526 333.637 194.486C334.146 191.144 334.445 190.33 335.912 188.79C336.211 188.47 336.81 187.686 337.259 187.046C337.708 186.378 338.187 185.796 338.277 185.709C338.606 185.419 339.444 182.687 339.444 181.844C339.444 181.35 339.205 180.246 338.935 179.345C338.396 177.688 337.558 176.729 334.236 173.852C332.859 172.689 332.799 172.573 332.949 171.44C333.128 170.132 333.577 169.696 335.493 168.853C336.63 168.359 337.469 168.272 341.899 168.272H347.017L349.442 167.138C352.435 165.714 353.393 165.482 353.962 165.947C354.68 166.528 354.501 167.284 352.914 170.481C350.28 175.683 349.951 180.158 352.136 180.885C353.064 181.234 354.86 180.711 355.698 179.868C356.297 179.257 358.302 175.479 358.302 174.956C358.302 174.607 358.841 173.329 359.769 171.498C360.906 169.231 365.516 166.092 368.27 165.714C370.994 165.366 373.508 167.691 374.586 171.585C374.765 172.224 375.065 172.776 375.274 172.835C375.813 173.009 376.053 171.788 375.663 170.8C373.867 166.296 372.131 164.784 368.689 164.784C366.504 164.784 364.079 165.685 362.553 167.051C362.313 167.255 361.685 167.749 361.116 168.156C360.128 168.911 358.302 171.236 358.302 171.759C358.302 171.905 358.123 172.457 357.883 172.98C357.644 173.503 357.225 174.52 356.955 175.247C355.788 178.24 354.83 179.461 353.453 179.751C352.196 180.042 351.956 179.635 351.986 177.514C352.016 175.421 352.615 173.561 354.381 170.103C355.758 167.458 355.907 166.237 355.009 165.366C353.962 164.348 352.076 164.581 348.963 166.092L346.299 167.371L341.15 167.313C336.63 167.255 335.852 167.313 334.804 167.807C333.278 168.504 332.38 169.376 331.811 170.713C331.183 172.166 331.721 173.329 333.757 174.985C337.409 177.95 338.486 179.751 338.187 182.367C338.007 183.733 336.81 186.291 336.241 186.494C336.032 186.581 335.852 186.814 335.852 187.046C335.852 187.279 335.732 187.453 335.613 187.453C335.493 187.453 334.894 188.063 334.326 188.819C333.248 190.243 332.739 191.9 332.41 195.009C332.021 198.555 331.632 198.729 329.416 196.288C327.082 193.701 325.435 193.498 324.777 195.707C324.418 197.015 324.597 198.7 325.585 202.798C326.004 204.571 326.034 205.152 325.735 206.518C324.986 210.035 323.49 211.924 320.287 213.58C317.443 215.004 316.994 215.498 316.994 217.3C316.994 218.114 317.084 218.841 317.234 218.899C317.353 218.928 317.952 219.712 318.581 220.613C320.137 222.822 319.628 223.897 317.593 222.764C314.899 221.282 312.384 223.839 313.791 226.629C314.48 227.937 315.258 231.076 315.078 231.744C314.809 232.761 313.761 233.662 312.803 233.662C311.935 233.662 310.708 232.82 310.708 232.209C310.708 232.035 310.618 231.919 310.469 231.919C310.05 231.919 308.463 228.141 307.266 224.217C306.428 221.485 305.44 219.247 304.811 218.608C304.602 218.405 304.422 218.114 304.422 217.969C304.422 217.852 303.764 217.068 302.925 216.254C300.621 213.987 299.304 213.929 297.178 216.051C295.741 217.446 294.963 218.811 292.988 223.491C292.808 223.897 292.479 224.566 292.269 225.002C292.03 225.409 291.85 225.961 291.85 226.222C291.85 226.484 291.76 226.687 291.641 226.687C291.491 226.687 291.162 227.094 290.892 227.559C290.324 228.547 289.515 228.693 288.857 227.908C288.318 227.298 287.42 225.263 285.923 221.166C285.235 219.335 283.798 216.545 283.259 215.992C283.05 215.789 282.87 215.498 282.87 215.353C282.87 214.801 279.278 211.633 277.901 210.994C275.926 210.064 271.825 209.802 270.448 210.558C269.4 211.081 268.502 213.057 268.502 214.772C268.502 217.416 266.766 219.916 263.503 221.921C262.545 222.531 261.288 223.491 260.719 224.043C259.762 225.002 258.624 226.891 258.624 227.559C258.624 228.111 260.181 229.303 260.869 229.303C262.066 229.303 263.952 230.233 264.132 230.901C264.341 231.657 263.803 233.662 263.413 233.662C263.234 233.662 263.114 233.808 263.114 233.953C263.114 234.127 261.887 235.842 260.39 237.76C255.99 243.398 255.421 244.881 255.122 250.809C254.942 254.5 254.882 254.878 253.775 257.494C252.578 260.284 251.44 264.207 251.44 265.515C251.44 265.893 251.021 267.084 250.512 268.16C249.764 269.729 248.896 270.804 246.381 273.246C244.645 274.96 243.119 276.355 242.999 276.384C242.879 276.384 242.161 276.791 241.383 277.285C240.245 278.041 239.676 278.215 238.269 278.244C236.743 278.273 236.444 278.186 235.755 277.46C235.336 277.024 234.618 275.919 234.199 274.989C233.779 274.088 233.301 273.1 233.151 272.839C232.462 271.502 230.607 266.125 229.709 262.783C228.87 259.557 228.751 254.936 229.439 252.117C230.457 248.048 229.798 246.014 226.506 243.021C225.817 242.381 225.278 241.48 224.829 240.201C224.021 237.76 223.063 236.307 221.387 234.941C218.513 232.616 216.358 232.5 211.838 234.476C210.012 235.261 209.234 235.29 207.648 234.505C202.529 231.948 200.164 223.868 202.559 217.097C203.996 213.028 207.468 207.593 210.791 204.309C213.784 201.316 214.951 200.415 217.286 199.369C218.903 198.642 219.741 198.642 221.746 199.311C223.482 199.921 224.71 200.851 226.266 202.827C226.835 203.525 227.853 204.455 228.481 204.92C229.529 205.646 229.948 205.762 231.654 205.762C234.677 205.762 243.628 204.106 244.406 203.408C244.555 203.263 244.885 203.147 245.154 203.147C245.723 203.118 246.771 202.304 247.22 201.49C247.698 200.589 247.609 199.34 247.01 198.584C246.501 197.916 243.268 196.172 242.58 196.172C242.37 196.172 241.832 195.852 241.412 195.416L240.664 194.69L241.622 193.789C242.789 192.742 244.047 192.19 246.112 191.812C248.058 191.435 249.644 190.301 249.644 189.284C249.644 188.121 248.596 186.726 247.279 186.145C245.663 185.448 243.119 185.651 240.904 186.697C239.048 187.569 238.449 188.296 237.521 191.057C236.713 193.353 235.695 194.312 233.779 194.573C231.235 194.922 229.918 194.544 228.481 193.033C227.763 192.336 227.194 191.609 227.194 191.464C227.194 191.318 226.685 190.737 226.087 190.214C225.099 189.313 224.74 189.197 223.363 189.197C221.357 189.197 219.92 189.981 217.466 192.394C214.981 194.835 213.694 195.416 211.27 195.242C207.887 194.951 207.109 194.137 208.186 192.103C208.785 190.97 210.042 190.185 211.629 189.952C215.131 189.458 216.717 188.063 216.298 185.884C216.179 185.302 215.969 184.837 215.819 184.837C215.64 184.837 215.52 184.721 215.52 184.547C215.52 184.401 215.041 183.82 214.472 183.268C212.676 181.495 213.275 179.664 216.059 178.415C216.837 178.066 217.825 177.601 218.274 177.397C218.693 177.165 219.262 176.991 219.561 176.991C219.831 176.991 221.028 176.031 222.255 174.84C223.991 173.154 224.47 172.486 224.56 171.73C224.68 170.51 224.35 168.562 224.021 168.301C223.872 168.214 223.632 167.894 223.452 167.632C223.303 167.371 222.644 166.441 222.016 165.598C220.729 163.825 220.339 161.878 220.878 159.989C221.237 158.681 223.812 154.322 224.231 154.322C224.38 154.322 224.5 154.176 224.5 154.031C224.5 153.479 228.751 149.41 230.457 148.277L232.133 147.201L235.575 147.231C237.94 147.231 239.497 147.376 240.514 147.696C244.915 149.12 252.009 149.41 257.427 148.393C261.737 147.608 263.294 146.853 266.018 144.324C269.28 141.302 269.4 141.244 272.693 141.244C275.237 141.244 275.686 141.156 276.943 140.43C277.722 139.994 279.069 139.006 279.937 138.192C281.373 136.884 287.719 132.525 288.168 132.525C288.288 132.525 288.587 132.351 288.827 132.147C289.096 131.944 289.904 131.537 290.653 131.246C291.401 130.926 292.479 130.491 293.047 130.229C293.796 129.909 295.023 129.793 297.238 129.764C300.291 129.764 300.411 129.793 301.818 130.694C302.596 131.217 303.883 132.321 304.662 133.135C307.356 135.983 309.331 137.756 309.75 137.756C310.02 137.756 310.439 137.96 310.738 138.221C311.037 138.483 311.816 138.744 312.474 138.831C313.462 138.977 313.701 138.919 313.701 138.541C313.701 138.25 313.372 137.989 312.893 137.901C311.217 137.553 309.9 136.71 307.655 134.501C306.368 133.251 305.32 132.089 305.32 131.944C305.32 131.769 305.23 131.653 305.081 131.653C304.961 131.653 304.542 131.362 304.123 130.985C301.429 128.631 298.046 127.933 293.975 128.892Z" fill="#7B8188"/>
<path d="M314.659 138.977C314.39 139.238 314.629 139.471 315.737 139.994C317.443 140.808 318.461 140.895 317.862 140.197C317.563 139.82 315.467 138.628 315.108 138.628C315.078 138.628 314.869 138.773 314.659 138.977Z" fill="#7B8188"/>
<path d="M376.082 174.985C375.903 175.392 375.873 176.032 375.993 176.555C377.848 183.588 379.165 191.26 380.303 201.868C380.932 207.477 380.902 223.316 380.303 228.693C378.208 247.118 376.352 255.663 373.059 262.057C371.742 264.614 369.617 267.259 369.108 266.939C368.958 266.881 368.689 266.387 368.479 265.864C367.731 263.975 367.222 262.841 366.294 261.127C365.785 260.168 364.917 258.54 364.348 257.494C363.81 256.448 363.091 255.198 362.762 254.733C362.463 254.239 362.103 253.658 361.984 253.425C361.325 252.088 359.11 249.908 357.823 249.298C355.997 248.484 355.279 248.659 354.5 250.228C354.141 250.955 353.842 251.827 353.812 252.175C353.812 252.873 351.357 255.459 350.699 255.459C350.16 255.459 349.502 253.367 349.711 252.292C350.699 247.496 350.669 247.671 350.04 246.828C349.531 246.159 349.142 245.985 347.945 245.927C346.179 245.84 345.012 246.537 341.42 249.879C340.192 251.013 339.085 251.972 339.025 251.972C338.965 251.972 337.917 252.524 336.69 253.222C335.493 253.919 334.295 254.588 334.056 254.704C330.883 256.186 328.578 258.482 327.531 261.243C326.992 262.638 326.004 268.073 326.004 269.7C325.974 271.473 326.932 273.391 327.98 273.798C329.057 274.205 332.14 273.943 333.637 273.304C336.391 272.17 336.81 271.996 337.887 271.56C338.486 271.269 339.234 270.95 339.564 270.804C340.462 270.339 342.826 269.7 343.575 269.7C344.862 269.7 346.568 270.863 349.382 273.623C350.908 275.135 352.285 276.384 352.405 276.384C352.555 276.384 352.854 276.559 353.094 276.791C353.662 277.373 355.668 277.634 357.584 277.402C359.14 277.227 359.38 277.053 361.984 274.699C363.51 273.304 365.037 271.996 365.396 271.793C367.013 270.95 367.821 271.676 367.432 273.682C367.252 274.728 365.606 278.157 364.588 279.727C364.259 280.192 363.87 280.86 363.72 281.18C363.57 281.499 362.702 282.807 361.834 284.115C359.439 287.544 358.781 288.445 358.541 288.533C358.392 288.591 358.302 288.823 358.302 289.056C358.302 289.288 358.212 289.463 358.092 289.463C357.943 289.463 357.464 290.044 357.015 290.77C356.536 291.497 356.027 292.078 355.877 292.078C355.728 292.078 355.608 292.253 355.608 292.485C355.608 292.718 355.488 292.95 355.339 293.008C355.189 293.037 354.381 293.996 353.483 295.13C352.615 296.234 351.806 297.222 351.687 297.309C351.597 297.397 350.759 298.298 349.891 299.344C347.735 301.872 346.688 302.977 341.479 308.004C336.361 313.003 335.193 314.049 332.559 316.142C331.482 317.014 330.584 317.828 330.524 317.973C330.464 318.118 330.284 318.234 330.105 318.234C329.925 318.234 329.626 318.409 329.446 318.641C328.429 319.833 315.378 328.697 314.629 328.697C314.45 328.697 314.3 328.813 314.3 328.929C314.3 329.075 313.851 329.394 313.342 329.656C312.803 329.918 311.696 330.528 310.858 330.993C308.373 332.417 306.577 333.347 302.177 335.468C297.956 337.503 297.388 337.735 294.694 338.869C292.299 339.886 292.119 339.944 289.455 340.903C288.048 341.397 286.462 342.008 285.923 342.24C285.384 342.473 284.696 342.647 284.427 342.647C284.127 342.647 283.618 342.821 283.319 343.054C282.84 343.403 282.541 343.403 281.673 343.083C281.104 342.908 279.817 342.502 278.829 342.211C277.841 341.949 276.494 341.543 275.836 341.339C274.698 341.019 273.202 340.583 269.49 339.566C268.532 339.305 267.155 338.898 266.407 338.694C265.658 338.491 264.192 338.113 263.114 337.852C262.036 337.561 260.57 337.183 259.821 336.98C257.995 336.457 255.571 335.817 253.236 335.207C252.158 334.945 250.542 334.538 249.644 334.306C248.746 334.073 247.339 333.696 246.501 333.492C245.693 333.289 244.256 332.911 243.358 332.678C241.263 332.126 238.958 331.545 232.582 330.005C231.684 329.772 229.918 329.394 228.691 329.133C227.463 328.871 225.638 328.464 224.65 328.261C223.662 328.058 221.716 327.651 220.309 327.389C218.903 327.128 216.837 326.721 215.67 326.488C214.532 326.256 213.245 326.081 212.856 326.081C212.467 326.081 210.97 325.878 209.563 325.645C201.302 324.279 189.987 323.902 186.485 324.89C184.21 325.5 182.863 326.256 181.965 327.36C181.426 328.028 181.336 328.435 181.456 329.947C181.546 331.545 181.755 332.039 182.953 333.812C184.27 335.73 187.682 339.159 188.251 339.159C188.4 339.159 188.58 339.247 188.64 339.363C188.849 339.828 190.675 340.874 194.297 342.589C196.393 343.577 198.249 344.391 198.428 344.391C198.608 344.391 198.997 344.507 199.296 344.681C199.835 344.972 201.811 345.698 203.397 346.134C203.906 346.28 204.984 346.599 205.792 346.832C216.747 350.058 226.296 351.366 239.018 351.366C248.986 351.366 256.319 350.726 263.862 349.186C265.03 348.924 266.227 348.75 266.526 348.75C266.856 348.75 267.784 348.576 268.622 348.343C269.46 348.111 271.016 347.704 272.094 347.442C275.536 346.599 280.056 345.379 281.613 344.827C282.481 344.536 282.96 344.594 285.205 345.321C286.642 345.786 288.557 346.367 289.455 346.599C290.353 346.861 291.581 347.239 292.149 347.442C292.718 347.646 294.005 348.023 294.993 348.314C295.981 348.576 297.268 348.983 297.837 349.186C299.962 349.913 301.01 350.261 302.327 350.61C303.075 350.843 304.691 351.278 305.919 351.656C307.146 352.005 308.972 352.47 309.96 352.703C310.947 352.964 312.444 353.342 313.282 353.574C314.12 353.807 315.048 353.981 315.378 353.981C315.677 353.981 316.904 354.156 318.042 354.388C334.655 357.788 362.792 358.195 384.943 355.405C386.349 355.202 388.235 354.998 389.133 354.94C390.839 354.766 391.648 354.417 391.348 353.923C391.139 353.633 389.193 353.749 383.895 354.417C357.643 357.672 325.824 356.219 307.415 350.93C305.081 350.261 297.148 347.82 296.041 347.442C295.472 347.239 294.185 346.861 293.197 346.57C292.209 346.28 290.114 345.669 288.557 345.175C287.001 344.71 285.534 344.274 285.354 344.216C284.696 344.042 284.935 343.519 285.654 343.519C286.043 343.519 286.612 343.315 286.941 343.083C287.24 342.85 287.779 342.647 288.138 342.647C288.468 342.647 288.857 342.531 289.036 342.414C289.186 342.298 290.114 341.891 291.102 341.513C295.921 339.712 304.542 335.817 307.715 333.986C308.283 333.638 309.451 333.027 310.259 332.62C311.097 332.213 312.175 331.632 312.654 331.313C314.36 330.266 315.048 329.859 315.587 329.685C315.857 329.598 316.096 329.394 316.096 329.278C316.096 329.162 316.515 328.9 316.994 328.697C317.503 328.493 317.892 328.232 317.892 328.087C317.892 327.941 318.042 327.825 318.191 327.825C318.551 327.825 320.376 326.633 320.526 326.285C320.586 326.168 320.766 326.081 320.945 326.081C321.125 326.081 321.753 325.674 322.382 325.209C323.011 324.715 323.669 324.338 323.849 324.338C324.028 324.338 324.178 324.221 324.178 324.076C324.178 323.96 324.777 323.466 325.525 323.001C326.273 322.565 326.872 322.071 326.872 321.954C326.872 321.838 327.082 321.722 327.321 321.722C327.56 321.722 327.77 321.635 327.77 321.489C327.77 321.373 328.578 320.705 329.566 320.007C330.554 319.31 331.362 318.612 331.362 318.496C331.362 318.351 331.542 318.234 331.781 318.234C332.021 318.234 332.26 318.118 332.32 318.002C332.38 317.857 333.487 316.839 334.804 315.735C336.151 314.631 338.007 313.003 338.935 312.131C342.407 308.934 344.832 306.58 344.832 306.435C344.832 306.377 345.401 305.767 346.119 305.069C346.837 304.401 348.334 302.802 349.472 301.523C350.609 300.245 351.597 299.14 351.687 299.053C352.166 298.646 355.788 294.2 357.823 291.497C359.11 289.811 360.337 288.213 360.577 287.922C360.816 287.661 360.996 287.341 360.996 287.254C360.996 287.167 361.415 286.585 361.894 285.975C362.403 285.365 362.792 284.725 362.792 284.551C362.792 284.377 362.912 284.231 363.061 284.231C363.211 284.231 363.48 283.824 363.69 283.359C363.899 282.865 364.169 282.488 364.319 282.488C364.468 282.488 364.588 282.342 364.588 282.197C364.588 282.023 364.917 281.383 365.336 280.744C367.342 277.663 368.779 274.205 368.779 272.432C368.779 271.24 367.821 270.281 366.564 270.281C365.396 270.281 364.019 271.182 361.265 273.827C358.661 276.268 357.673 276.733 355.668 276.413C353.842 276.152 352.704 275.367 349.472 272.17C346.927 269.642 345.101 268.538 343.545 268.538C342.677 268.538 339.953 269.322 338.606 269.962C337.708 270.398 334.475 271.734 332.709 272.461C331.931 272.752 330.883 272.897 329.865 272.839C328.279 272.752 328.189 272.693 327.65 271.618C327.111 270.572 327.111 270.252 327.441 267.404C327.98 262.696 328.907 260.197 330.793 258.308C331.781 257.319 336.121 254.588 336.75 254.588C336.9 254.588 337.199 254.413 337.409 254.21C337.618 254.035 338.307 253.599 338.935 253.28C339.534 252.96 341.18 251.652 342.557 250.373C343.934 249.095 345.7 247.729 346.448 247.351C347.646 246.712 347.885 246.653 348.544 247.031C349.202 247.351 349.322 247.613 349.322 248.601C349.292 249.269 349.112 250.112 348.873 250.519C348.095 251.856 348.484 255.169 349.531 256.215C350.849 257.494 354.081 254.965 355.159 251.856C355.458 250.926 355.877 250.112 356.057 250.054C357.314 249.56 359.499 251.565 361.744 255.198C363.54 258.133 367.282 265.428 367.282 265.98C367.282 266.213 367.671 266.823 368.15 267.375C368.988 268.363 369.018 268.363 369.856 267.956C370.335 267.724 370.904 267.288 371.113 267.026C371.323 266.765 371.652 266.358 371.862 266.154C373.179 264.788 375.005 261.243 376.172 257.61C378.357 250.926 378.896 248.136 381.261 230.902C382.009 225.38 382.009 205.356 381.261 199.514C380.213 191.348 379.225 185.186 378.477 182.048C378.238 181.088 378.058 179.955 378.058 179.519C378.058 179.083 377.938 178.734 377.789 178.734C377.639 178.734 377.429 177.95 377.31 177.02C377.19 176.061 376.95 175.073 376.741 174.811C376.412 174.375 376.352 174.375 376.082 174.985ZM201.152 325.791C208.935 326.459 218.932 328.058 227.493 330.005C228.391 330.237 230.098 330.615 231.235 330.877C232.402 331.138 234.109 331.545 235.067 331.748C239.796 332.911 240.634 333.143 242.161 333.55C244.855 334.248 246.681 334.742 248.596 335.178C251.23 335.846 254.074 336.544 255.78 337.009C256.618 337.241 257.965 337.619 258.774 337.823C259.612 338.055 261.138 338.462 262.216 338.723C263.294 338.985 264.7 339.392 265.359 339.595C266.018 339.799 267.424 340.177 268.502 340.467C269.58 340.729 271.046 341.136 271.795 341.368C276.434 342.734 279.248 343.519 279.667 343.519C279.966 343.519 280.086 343.664 279.996 343.955C279.877 344.187 279.517 344.391 279.158 344.391C278.829 344.42 278.2 344.594 277.781 344.827C277.362 345.059 276.674 345.233 276.225 345.263C275.776 345.263 274.878 345.437 274.279 345.669C273.651 345.873 272.064 346.28 270.747 346.57C269.43 346.832 267.604 347.239 266.706 347.442C265.808 347.646 263.862 348.023 262.366 348.285C240.993 351.802 221.926 350.755 203.846 345.059C202.11 344.536 200.434 343.984 200.104 343.838C199.775 343.693 198.308 343.083 196.872 342.502C195.405 341.92 193.788 341.194 193.28 340.903C192.741 340.613 191.783 340.089 191.124 339.741C188.7 338.462 184.09 334.277 184.09 333.347C184.09 333.202 183.97 333.056 183.851 333.056C183.491 333.056 182.294 330.266 182.294 329.453C182.294 327.854 184.389 326.43 187.532 325.849C188.52 325.645 189.598 325.442 189.927 325.384C190.705 325.209 196.752 325.442 201.152 325.791Z" fill="#7B8188"/>
<path d="M105.306 183.675C103.569 184.983 103.18 187.308 102.372 200.822C102.222 203.292 101.953 207.884 101.773 210.994C101.055 222.735 102.612 238.487 105.575 249.502C106.503 253.018 108.957 260.458 109.317 260.807C109.436 260.981 109.556 261.33 109.556 261.592C109.556 261.882 109.736 262.463 109.975 262.928C110.215 263.364 110.634 264.323 110.933 265.05C112.19 268.247 118.147 280.104 118.835 280.744C118.955 280.86 121.11 284.231 122.817 286.992C123.026 287.312 123.236 287.632 123.325 287.719C123.445 287.806 124.313 288.968 125.271 290.334C126.259 291.7 127.157 292.834 127.277 292.892C127.396 292.95 127.516 293.183 127.516 293.415C127.516 293.648 127.636 293.822 127.756 293.822C127.875 293.822 128.474 294.461 129.103 295.275C129.821 296.205 130.36 296.641 130.659 296.554C131.078 296.379 131.138 295.885 130.779 295.566C130.689 295.478 130.24 294.897 129.731 294.258C129.252 293.618 128.683 292.921 128.474 292.718C128.294 292.485 127.696 291.7 127.157 290.974C126.648 290.218 126.109 289.55 125.96 289.521C125.84 289.463 125.72 289.288 125.72 289.114C125.72 288.939 125.331 288.329 124.822 287.719C124.343 287.108 123.924 286.469 123.924 286.295C123.924 286.12 123.804 285.975 123.685 285.975C123.535 285.975 123.266 285.684 123.056 285.307C122.876 284.958 122.457 284.26 122.128 283.795C121.799 283.301 121.44 282.72 121.35 282.488C121.23 282.255 120.961 281.848 120.781 281.616C119.554 280.163 113.328 268.043 111.801 264.178C111.532 263.452 111.113 262.492 110.873 262.057C110.634 261.592 110.454 261.01 110.454 260.72C110.454 260.458 110.334 260.109 110.215 259.935C109.766 259.47 107.73 253.076 106.413 248.048C102.971 235.087 101.983 218.259 103.599 199.95C103.779 197.945 104.048 194.428 104.168 192.103C104.557 185.419 105.575 183.413 107.7 185.041C108.598 185.709 108.658 185.855 108.658 187.715C108.658 189.051 108.389 190.446 107.79 192.248C107.311 193.701 106.682 196.085 106.383 197.567L105.844 200.27L106.682 204.106C107.131 206.227 107.64 208.727 107.76 209.686C108.508 215.353 110.065 217.155 113.238 216.08C113.926 215.847 114.615 215.644 114.735 215.644C115.094 215.644 116.74 217.475 116.74 217.881C116.74 218.085 116.86 218.492 117.009 218.782C117.159 219.044 117.608 219.916 117.967 220.73C118.746 222.386 119.404 223.2 119.943 223.2C120.152 223.2 120.332 223.461 120.332 223.752C120.332 224.101 120.661 224.421 121.2 224.595C121.709 224.769 122.128 225.176 122.218 225.583C122.457 226.455 124.523 227.472 126.468 227.676C129.043 227.908 130.569 229.012 134.7 233.604C136.736 235.871 139.16 237.789 141.285 238.807C141.914 239.097 142.602 239.795 143.231 240.725C143.74 241.509 143.74 241.626 143.231 243.34C142.962 244.328 142.513 245.723 142.243 246.45C141.914 247.351 141.764 248.775 141.764 250.955C141.764 253.803 141.854 254.326 142.543 255.75C143.351 257.407 146.584 262.231 147.033 262.376C147.152 262.434 147.272 262.667 147.272 262.899C147.272 263.132 147.362 263.306 147.512 263.306C147.811 263.306 148.918 265.486 149.487 267.172C150.056 268.857 150.116 273.333 149.577 276.297C149.278 277.867 149.278 278.593 149.517 279.203C149.936 280.192 150.146 279.901 150.505 277.692C151.283 273.246 151.163 267.956 150.235 265.631C149.727 264.352 146.194 259.208 145.716 259.005C145.566 258.947 145.476 258.714 145.476 258.482C145.476 258.249 145.356 258.075 145.237 258.075C145.087 258.075 144.518 257.203 143.979 256.099C143.081 254.413 142.932 253.803 142.842 251.623C142.722 249.124 142.902 248.194 144.159 244.416C144.728 242.672 144.698 240.783 144.069 239.766C143.8 239.301 142.632 238.371 141.465 237.673C140.028 236.83 137.933 235.028 134.999 232.151C130.42 227.676 128.953 226.687 126.917 226.687C124.164 226.687 120.631 223.694 118.865 219.858C117.069 216.021 116.68 215.411 115.692 214.888C114.764 214.423 114.525 214.394 113.687 214.743C110.394 216.051 109.915 215.498 108.808 208.843C108.568 207.419 108.239 205.85 108.089 205.356C106.772 201.229 107.072 197.741 109.197 191.812C109.496 190.999 109.676 189.487 109.676 187.86C109.706 185.302 109.676 185.215 108.808 184.431C107.97 183.675 106.862 183.094 106.293 183.094C106.144 183.094 105.695 183.355 105.306 183.675Z" fill="#7B8188"/>
<path d="M131.377 212.389C130.06 213.232 129.402 213.987 128.504 215.673C127.247 217.969 127.097 219.189 127.845 220.904C128.414 222.183 128.683 222.415 130.479 223.229C131.557 223.723 132.934 224.333 133.503 224.595C134.071 224.886 134.999 225.525 135.538 226.077C136.376 226.92 136.496 227.24 136.496 228.635C136.496 231.861 137.633 233.168 142.303 235.406C145.177 236.772 147.482 236.801 150.235 235.464C152.54 234.331 153.917 234.273 156.042 235.29C157.509 235.987 159.275 236.569 163.137 237.644C164.035 237.877 165.202 238.312 165.741 238.545C166.878 239.097 168.824 240.783 168.824 241.19C168.824 241.364 168.944 241.509 169.093 241.509C169.243 241.509 169.692 242.062 170.111 242.73C171.009 244.212 172.536 245.869 172.985 245.869C173.164 245.869 173.314 245.956 173.314 246.101C173.314 246.217 174.302 246.799 175.499 247.409C178.403 248.862 179.69 249.937 180.468 251.565C181.965 254.617 180.767 259.179 177.145 264.411C175.679 266.503 175.23 267.084 173.524 268.944C173.045 269.438 172.326 270.339 171.907 270.921C171.488 271.531 171.009 272.025 170.889 272.025C170.74 272.025 170.62 272.17 170.62 272.345C170.62 272.519 170.231 273.158 169.722 273.769C169.243 274.379 168.824 274.931 168.824 275.018C168.824 275.396 162.239 284.929 161.879 285.045C161.76 285.103 161.64 285.307 161.64 285.481C161.64 285.655 161.46 286.004 161.221 286.237C160.503 286.992 159.066 290.073 158.587 291.933C158.018 294.025 157.15 298.675 157.15 299.692C157.15 300.826 156.042 304.604 155.564 305.069C154.935 305.679 154.157 305.214 152.899 303.5C150.714 300.477 149.098 295.885 149.068 292.63C149.068 291.787 148.888 291.148 148.619 290.916C147.931 290.363 147.99 295.13 148.739 297.629C149.337 299.722 151.133 303.412 151.523 303.412C151.642 303.412 151.762 303.587 151.762 303.819C151.762 304.401 154.366 306.609 155.055 306.609C155.414 306.609 155.983 306.29 156.342 305.912C157.06 305.156 158.048 302.541 158.048 301.378C158.048 300.564 158.796 296.205 159.455 293.241C160.054 290.567 161.371 287.806 163.047 285.626C163.765 284.725 164.334 283.853 164.334 283.679C164.334 283.505 164.454 283.359 164.603 283.359C164.753 283.359 165.442 282.429 166.16 281.296C166.878 280.162 167.687 278.942 167.926 278.564C168.165 278.186 168.914 277.053 169.542 276.036C170.77 274.117 172.955 271.24 174.122 269.991C174.481 269.584 175.11 268.915 175.529 268.479C175.918 268.043 176.517 267.288 176.786 266.794C177.086 266.329 177.445 265.922 177.565 265.922C177.684 265.922 177.804 265.718 177.804 265.486C177.804 265.253 177.924 265.05 178.073 265.05C178.223 265.05 178.463 264.759 178.582 264.382C178.672 264.033 178.941 263.539 179.151 263.306C179.39 263.074 179.899 262.202 180.318 261.388C182.294 257.581 182.803 253.745 181.725 251.362C181.007 249.821 179.031 247.932 177.205 247.031C173.943 245.462 173.254 244.939 171.338 242.439C167.926 237.993 167.148 237.499 160.742 235.813C159.664 235.522 157.988 234.912 157 234.418C154.456 233.227 152.031 233.256 149.457 234.505C146.853 235.755 145.775 235.697 142.393 234.098C140.866 233.372 139.37 232.558 139.04 232.267C138.172 231.541 137.693 230.349 137.663 228.78C137.633 228.024 137.544 227.123 137.454 226.746C137.184 225.845 135.568 224.333 134.191 223.694C133.563 223.403 132.665 222.967 132.216 222.735C131.737 222.502 131.228 222.328 131.078 222.328C130.898 222.328 130.3 221.979 129.731 221.543C127.995 220.265 127.157 217.329 128.414 216.952C129.222 216.719 130.24 215.237 130.03 214.656C129.911 214.307 130.03 214.191 130.479 214.191C130.839 214.191 131.108 214.103 131.108 213.958C131.108 213.842 131.647 213.493 132.305 213.202C133.323 212.737 133.712 212.679 134.85 212.941C136.197 213.232 136.346 213.173 136.017 212.331C135.748 211.662 132.425 211.691 131.377 212.389Z" fill="#7B8188"/>
<path d="M148.948 281.354C148.619 283.04 148.709 283.65 149.367 283.65C149.876 283.65 149.966 283.447 149.966 282.546C149.966 281.964 149.757 281.238 149.547 280.947C149.188 280.482 149.128 280.511 148.948 281.354Z" fill="#7B8188"/>
<path d="M148.469 285.655C148.11 287.021 148.14 290.102 148.529 289.869C148.649 289.782 148.769 289.869 148.769 290.073C148.769 291.061 149.068 289.927 149.367 287.748C149.667 285.655 149.637 285.248 149.248 284.871C148.859 284.493 148.769 284.58 148.469 285.655Z" fill="#7B8188"/>
<path d="M131.557 297.28C131.078 298.065 132.695 299.809 133.503 299.344C133.772 299.169 133.593 298.821 132.844 298.036C132.096 297.251 131.737 297.019 131.557 297.28Z" fill="#7B8188"/>
<path d="M134.161 300.158C133.563 300.332 133.742 300.913 134.64 301.756C135.598 302.657 135.778 302.686 135.987 302.134C136.197 301.64 134.67 299.983 134.161 300.158Z" fill="#7B8188"/>
<path d="M136.376 303.471C137.185 304.778 145.626 312.858 150.056 316.578C153.019 319.048 158.437 324.308 159.994 326.227C160.652 327.011 161.371 327.883 161.61 328.116C161.999 328.493 163.616 330.847 164.544 332.33C166.31 335.178 167.627 339.305 167.627 341.92C167.627 345.35 165.561 348.721 162.119 350.988C161.431 351.424 160.832 351.86 160.742 351.947C160.473 352.208 156.581 353.981 156.282 353.981C156.102 353.981 155.534 354.156 154.995 354.388C154.037 354.766 152.241 355.318 149.397 356.016C147.242 356.568 140.777 357.178 137.095 357.178C127.636 357.178 110.095 355.26 95.6371 352.644C94.32 352.412 92.1648 352.005 90.8477 351.772C87.7347 351.22 84.2923 350.523 82.6759 350.145C81.748 349.912 81.1793 349.912 80.6405 350.174C79.5928 350.61 79.9819 351.017 81.6582 351.22C82.4365 351.337 84.0229 351.598 85.1604 351.831C91.9852 353.167 95.8466 353.836 104.916 355.26C118.057 357.294 132.186 358.544 139.34 358.253C145.177 357.992 150.655 357.178 153.199 356.132C153.738 355.899 154.366 355.725 154.606 355.725C154.845 355.725 155.534 355.522 156.162 355.26C158.048 354.446 159.066 354.039 159.545 353.836C159.784 353.749 160.263 353.516 160.592 353.313C165.202 350.552 167.058 348.517 168.255 344.914C168.974 342.705 168.974 340.758 168.255 338.113C167.717 336.021 165.023 330.441 164.574 330.441C164.454 330.441 164.334 330.295 164.334 330.121C164.334 329.482 159.425 323.64 156.551 320.85C154.995 319.31 152.421 317.043 149.697 314.747C148.649 313.875 145.416 310.882 142.573 308.121C139.34 305.04 137.125 303.122 136.765 303.122C136.346 303.122 136.227 303.238 136.376 303.471Z" fill="#7B8188"/>
<path d="M57.8014 345.059C57.3524 345.495 57.9511 346.134 58.7892 346.134C59.1783 346.134 60.0464 346.309 60.7947 346.541C61.5131 346.745 63.1295 347.152 64.3568 347.413C65.5841 347.704 67.3501 348.082 68.2481 348.314C69.1461 348.547 70.9122 348.924 72.1395 349.186C74.5341 349.709 76.4499 350.145 77.3179 350.407C77.7669 350.523 77.8567 350.407 77.7669 349.883C77.7071 349.389 77.4077 349.157 76.7791 349.012C76.3002 348.895 75.2226 348.634 74.3845 348.459C73.5763 348.256 72.2891 347.994 71.5408 347.878C70.7925 347.762 69.5353 347.5 68.6971 347.297C67.8889 347.122 66.3923 346.745 65.4045 346.512C63.0397 345.96 60.2559 345.292 59.0586 344.972C58.4899 344.827 58.0109 344.856 57.8014 345.059Z" fill="#7B8188"/>
<path d="M402.304 446.952C402.304 448.202 402.573 448.55 403.322 448.26C403.651 448.144 403.801 447.708 403.801 446.952C403.801 445.935 403.711 445.819 403.052 445.819C402.394 445.819 402.304 445.935 402.304 446.952Z" fill="#7B8188"/>
<path d="M412.96 446.836C412.481 447.533 412.481 447.562 413.08 447.562C413.529 447.562 413.679 447.359 413.679 446.836C413.679 446.429 413.619 446.109 413.559 446.109C413.499 446.109 413.23 446.429 412.96 446.836Z" fill="#7B8188"/>
<path d="M418.169 446.284C417.78 447.272 418.109 448.434 418.767 448.434C419.635 448.434 420.024 446.574 419.306 445.877C418.767 445.354 418.498 445.441 418.169 446.284Z" fill="#7B8188"/>
<path d="M426.76 446.691C426.221 447.533 426.221 447.562 426.819 447.562C427.328 447.562 427.448 447.388 427.448 446.691C427.448 446.197 427.418 445.819 427.358 445.819C427.328 445.819 427.029 446.197 426.76 446.691Z" fill="#7B8188"/>
<path d="M431.998 445.877C431.279 446.574 431.669 448.434 432.537 448.434C433.165 448.434 433.494 447.185 433.105 446.196C432.806 445.441 432.537 445.354 431.998 445.877Z" fill="#7B8188"/>
<path d="M53.6406 449.946C53.431 450.149 53.2814 450.585 53.2814 450.963C53.2814 451.573 53.4011 451.631 54.778 451.631C56.1549 451.631 56.2747 451.573 56.2747 450.963C56.2747 450.091 55.7359 449.597 54.778 449.597C54.359 449.597 53.8501 449.742 53.6406 449.946Z" fill="#7B8188"/>
<path d="M103.599 448.609C103.599 448.929 103.689 449.016 103.779 448.783C103.869 448.58 103.839 448.318 103.749 448.231C103.659 448.115 103.569 448.289 103.599 448.609Z" fill="#7B8188"/>
<path d="M418.887 454.072C418.618 454.77 419.007 455.467 419.576 455.351C419.935 455.293 420.114 455.002 420.114 454.537C420.114 453.695 419.157 453.346 418.887 454.072Z" fill="#7B8188"/>
<path d="M240.113 106.137C236.312 106.615 233.072 108.133 230.406 110.703C227.727 113.273 226.018 116.459 225.389 120C225.129 121.559 225.129 124.211 225.389 125.769C225.812 128.162 226.934 130.842 228.314 132.728C229.832 134.793 232.238 136.871 234.467 137.992C236.025 138.771 238.65 139.537 240.223 139.66L240.701 139.701L240.77 157.406C240.824 170.914 240.879 175.18 241.002 175.398C241.262 175.863 241.918 176.068 242.41 175.863C242.643 175.767 242.902 175.562 242.998 175.398C243.121 175.18 243.176 170.914 243.23 157.406L243.299 139.701L244.119 139.605C246.115 139.387 248.439 138.621 250.285 137.555C251.789 136.693 252.473 136.187 253.744 134.943C259.568 129.297 260.498 120.328 255.973 113.451C254.701 111.523 252.309 109.336 250.162 108.133C247.332 106.56 243.258 105.754 240.113 106.137ZM237.064 114.695C239.061 115.283 240.1 117.771 239.143 119.644C238.787 120.342 237.789 121.217 237.105 121.422C234.686 122.146 232.43 120.478 232.43 117.976C232.43 116.185 234.084 114.531 235.93 114.49C236.162 114.476 236.668 114.572 237.064 114.695Z" fill="#DEB887"/>
</svg>
